/* XPM */
static char *e415d0bc7e284c8391304cd7da57cfe12DGVUpLGCrx72zyR[] = {
/* columns rows colors chars-per-pixel */
"50 50 233 2 ",
"   c #2A0715",
".  c #3B0C1D",
"X  c #36081B",
"o  c #3C101D",
"O  c #2B0C25",
"+  c #2C0E2A",
"@  c #260C24",
"#  c #340522",
"$  c #390723",
"%  c #330B25",
"&  c #3A0926",
"*  c #350D28",
"=  c #3C0D2A",
"-  c #2D132B",
";  c #2E1223",
":  c #331324",
">  c #3C1323",
",  c #33142B",
"<  c #3B152C",
"1  c #34192E",
"2  c #3C192D",
"3  c #351927",
"4  c #2E1B35",
"5  c #2D1938",
"6  c #331733",
"7  c #341B34",
"8  c #3B1B32",
"9  c #341D3A",
"0  c #391E3A",
"q  c #341637",
"w  c #3C2235",
"e  c #36223B",
"r  c #3B233C",
"t  c #3A2738",
"y  c #420F1C",
"u  c #5D091D",
"i  c #5C0A19",
"p  c #40121D",
"a  c #6C0D1B",
"s  c #63091C",
"d  c #740E15",
"f  c #720E1C",
"g  c #780F16",
"h  c #64131A",
"j  c #6E141B",
"k  c #6A1217",
"l  c #741215",
"z  c #791216",
"x  c #74121D",
"c  c #7B141B",
"v  c #72181F",
"b  c #7D191C",
"n  c #420D27",
"m  c #5E0A22",
"M  c #431423",
"N  c #43142A",
"B  c #46192B",
"V  c #441D31",
"C  c #4B1533",
"Z  c #531C3B",
"A  c #511936",
"S  c #6B0724",
"D  c #630C24",
"F  c #6C0B24",
"G  c #6D0C29",
"H  c #640824",
"J  c #710D24",
"K  c #720D2B",
"L  c #740A26",
"P  c #6D1224",
"I  c #6E132A",
"U  c #651429",
"Y  c #741423",
"T  c #7A1523",
"R  c #751A23",
"E  c #7B1B25",
"W  c #73132B",
"Q  c #791529",
"!  c #75192D",
"~  c #7C1B2A",
"^  c #740F32",
"/  c #6A1733",
"(  c #751531",
")  c #761A37",
"_  c #442435",
"`  c #42243A",
"'  c #45293D",
"]  c #4A2B3E",
"[  c #4A2539",
"{  c #54283D",
"}  c #7E2026",
"|  c #7B222C",
" . c #7C2235",
".. c #72203B",
"X. c #7B243C",
"o. c #772338",
"O. c #62293A",
"+. c #371D40",
"@. c #3C2542",
"#. c #3C2945",
"$. c #3D2A4B",
"%. c #372446",
"&. c #3E2F50",
"*. c #422642",
"=. c #422B45",
"-. c #4A2C43",
";. c #442D49",
":. c #4A2E4C",
">. c #472747",
",. c #582A44",
"<. c #45314C",
"1. c #4B324A",
"2. c #4C3448",
"3. c #543246",
"4. c #54334B",
"5. c #573A4C",
"6. c #4C3652",
"7. c #453558",
"8. c #493658",
"9. c #533C53",
"0. c #593F59",
"q. c #583B53",
"w. c #402F51",
"e. c #632A49",
"r. c #67284A",
"t. c #7B2845",
"y. c #663546",
"u. c #79354E",
"i. c #772E53",
"p. c #683854",
"a. c #743353",
"s. c #7B3254",
"d. c #7B3B5C",
"f. c #78375A",
"g. c #5E3F61",
"h. c #7E3D61",
"j. c #58424B",
"k. c #5C435C",
"l. c #5A4154",
"z. c #654458",
"x. c #78445E",
"c. c #74474E",
"v. c #5D4561",
"b. c #5E4862",
"n. c #634B64",
"m. c #674B65",
"M. c #7B4262",
"N. c #734E67",
"B. c #6C526C",
"V. c #65526A",
"C. c #72556E",
"Z. c #725267",
"A. c #6E5472",
"S. c #6D5875",
"D. c #725574",
"F. c #725975",
"G. c #755B7A",
"H. c #795B78",
"J. c #6C4E70",
"K. c #78617B",
"L. c #831A1B",
"P. c #8A1C1C",
"I. c #841419",
"U. c #841325",
"Y. c #891524",
"T. c #841E23",
"R. c #831A2A",
"E. c #86172A",
"W. c #812129",
"Q. c #8C2125",
"!. c #85343F",
"~. c #842E4C",
"^. c #812C42",
"/. c #863642",
"(. c #883645",
"). c #893A44",
"_. c #873749",
"`. c #843654",
"'. c #893453",
"]. c #8A3A55",
"[. c #843A5C",
"{. c #8B3C5C",
"}. c #813858",
"|. c #913B58",
" X c #843D62",
".X c #8A3E62",
"XX c #903F68",
"oX c #8D415D",
"OX c #95415F",
"+X c #854264",
"@X c #8C4264",
"#X c #874568",
"$X c #8C446A",
"%X c #8B496B",
"&X c #924365",
"*X c #92456B",
"=X c #934A6C",
"-X c #974B6B",
";X c #965A64",
":X c #934C73",
">X c #944F79",
",X c #9A4E75",
"<X c #955074",
"1X c #9B537B",
"2X c #975375",
"3X c #8A5271",
"4X c #AA5F64",
"5X c #8A6B78",
"6X c #B36970",
"7X c #C46D74",
"8X c #AA8D7F",
"9X c #785D80",
"0X c #927A8B",
"qX c #9A8698",
"wX c #A98C86",
"eX c #A8918D",
"rX c #B89689",
"tX c #B59495",
"yX c #B08E97",
"uX c #9D8BA1",
"iX c #B999A8",
"pX c #BFA7B4",
"aX c #C49E95",
"sX c #D7A99C",
"dX c #CBA296",
"fX c #C795A9",
"gX c #C5A8AC",
"hX c #C6A9B4",
"jX c #D4B1B3",
"kX c #DCB2B3",
"lX c #D4ADA8",
"zX c #E1B4B5",
"xX c #D0B1C0",
/* pixels */
"J Y Q Q Q P P j l l x l l b b b c z z c l l b b b b b b b l b z z z l z z c c T.Y.Y.U.Y.Y.Y.U.U.U.U.",
"Y T E Q R E ~ Q ~ E ~ E E ~ } R.E T E E } v v v v v v v v v v v E E b E E R.W.} Q.R.R.R.R.E.U.E.E.T.",
"x v x x x Y x f Q Q Y Y Y x x v v v v R v v k k h h h h h h h h l R x v R Y Y Y x x x Q Q Y Y Y J x ",
"T T E T T c T U.~ R.T.U.E E E T.c b b b b b k k k k v k k k k k } b } } E E E E E R T E ~ E ~ ~ Y Y ",
"a x R T c Y T E c g g g g g L.L.P.P.P.P.Q.P.P.P.T.T.P.P.L.L.L.b z z z l z x x z b l l l l k d f T c ",
"d x x Y x a a j E c c c z b T.W.P.P.P.P.P.P.P.P.P.P.L.L.L.z z I.c b b b b b L.b b b c T b c c v f x ",
"~ Q E ~ ~ | | | ~ ~ R R T R ~ } T.} E W.Q.b } } } } } } } b b b E R R R E R ~ ~ v Y Y E ~ P j a x P ",
"T J F R  .!./.!._._._._.).).(.(.!.!.).).oX!.X.).!.).).).!.).!.!.).).(./.(.(.(._././.(.(./...U s i h ",
"Y E c ~ '.XX X Xi. Xh.h.a.a.d.s.a.a.a.s.a.a.i.i.u.u.a.s.s.`.s.i.a.i.i.s.d.s.s.f.f.h.h.h.s.|.Y v x v ",
"Y T T ~ XXXXXX>X XXXh.XX%X+X%X$X+X#X#X#X+XoXoX+X+XoXoX+X+X+X.X.X#X%X$X%X$X Xh.#X Xh.%X:X[.].Y l v v ",
"Y T c Q '.XXXX0X>X Xh.h.M.d.M.d.x.+X+XM.M.x. X+XM.M.M.M.M.d.x.M.p.x.d.x.M.f.f.M.:Xh.>X1X{.'.Y x Y Y ",
"Y T c Q ~.XX,X>Xh.e.& + < # $ $ X % $ $ & & % $ % $ * $ % % # % # # O # * & * C >Xi.>X1X].t.Y g x x ",
"P Y T Q t.$X,XXX#Xe.$ # 6 O , , , : % : 2 8 , * * , , < < , > , 8 , , , 6 = < Z >Xs.:X,X{.^.W b Y T ",
"Y f c ~ t.$X,XXX Xe.$ + 1 * , * 3 : ; ; 1 7 7 1 , 2 8 2 : : : : , 2 , , , * < Z 1Xd.>X>X.X!.x c x x ",
"Y f c Q t.#X0X0X Xr.= * - - 1 1             , 2 7 2 3 :         % 2 8 8 < O = ,.-Xd.1X*XoXo.k c x Y ",
"Y x T Q )  XXXXXXXr.= + 1 t -.-.o o o X : V { 5.9.5.2._ B p p p 0 [ 2.:.` % n ,..X X1X*XOX! a b x x ",
"Q T E.~ ) -X,X>X Xa.& * - ' < < o M M o o > _ [ j.] p M p y M p p o _ -.6 1 # r.{.[.>X$X&XQ b x x f ",
"a f J W U .X*XXX Xa.& , , -.V > p M M M M > o [ l.] o B M y B p M N B 2.- , # a.].[.>X#X|.Q Y x E T ",
"Y J T T I oX*XXX.Xf.$ , , ' V > n y p . B N X { z.] > p o . M X X > 2 4.1 2 $ a.{. X>X#X|.W T c f a ",
"~ E.R.~ ! oX*X*X Xd.$ , - ' V > M B { V ,.-.* { j.] 2 2 > > V V 2 _ 2 4.1 1 # a.]. X>X$X_.W f Y ~ T ",
"E.U.E.U.I oX@X$X.Xh.$ , , ` _ > B p.C.m.F.Z.' ' q.3.3.q.5.p.z.N.N.m.V -.; , $ s.].#X<X@X(.Y g f f f ",
"T U.U.T P ].oX$X.X+X$ , - ` [ > V Z.K.S.K.K.n.5.l.5.m.C.D.D.C.H.K.F.8 3.: > $ d.].&X<X+XX.f f T x x ",
"U.Y.Y.U.Y ]..X*X X#X$ , 1 ` [ > 2 N.B.J.V.S.G.z.k.q.B.F.D.F.Z.C.A.G.1 4.1 < . d.'.*X<XoXX.x x f x f ",
"U.Y.E.T P '..XXX X#X$ , - [ ] > > N.D.G.G.A.H.4.z.l.J.S.D.F.C.D.S.G.< 3.: : $  X'.=X<XoX .x g f a f ",
"( T E Y ! ~.OX$X{.=X# 8 @ ] [ M > z.D.G.D.D.G.j.k.k.n.F.F.D.F.F.S.C.t 3.1 * n .X`.-X2X{.W.T Q Q Q Q ",
"L L Y a U t.{..X{.:X$ , @ _ _ X > p.D.G.D.D.S.2.n.k.m.B.S.A.A.A.F.F.0 2.- * n +X`.-X2X{.X.T W Q f J ",
"Q Q Q Q Q ~.&X*X{.:Xn 8 - 2.] B N q.F.G.D.D.D.9.k.0.n.F.D.D.D.G.F.F.r -., * n .Xu.=X2X].) J Y L Q Q ",
"J J Y Y W ^.{.&X@X:Xn + @ _ B > N 5.D.G.J.D.A.0.k.0.n.D.G.S.D.D.A.A.' ' - * N *X`.=X:X].Q f f L J J ",
"I F P Y I X.{.XX&X=XC % , -.[ V N 3.Z.D.J.D.J.0.0.q.n.D.A.A.A.J.S.C.*.=.3 % C &Xs.%X-X`.! f J W f F ",
"I I I P I ..{.*X{.=XC % *.z.q.q.B 3.F.G.G.H.m.9.0.9.n.F.F.F.G.G.F.D.-.' 1 % C $X`.=X-X`.~ J T W W W ",
"D u u u u / `.@X&X-XA * >.p.-.[ { 3.B.A.D.H.b.2.:.1.0.B.A.A.S.D.V.B.=.` 6 % A =X].=X=X`.! W J K J J ",
"m u u u h / [.=X.X%XZ * 4.n.-.-.{ 3.k.v.g.m.9.2.:.;.6.n.v.v.v.g.v.n.' w 1 O A =XoX=X$Xu.Q f f a J F ",
"u m H H D U oX>X$X%XZ < >.n.;.=.;.9.2.t l.0X0XuXqXuXuXuX0Xl.<.;.=.1.:.r , O Z :X.X,X&X!.W W W W W W ",
"D G G G P / +X<X.X=XZ # - :.r ;.@.;.=.=.6.b.9.k.b.S.b.b.k.;.@.;.6.4.-.0 1 % Z -X.X-X&XX.W K K I F G ",
"G K ( W W U .X:X.X:X,.X @ t t ;.k.k.n.V.b.b.<.9.<.<.%.<.k.k.m.B.0.9.*.8 - * ,.*X X-X|.) I I F Y K K ",
"F G ^ K I H '.,X&X=Xe.% , =.r 9 ;.=.=.6.<.=.6 @.#.=.9 e ;.<.<.<.<.;.0 6 , * r.-X.X*X|.) G J K G G G ",
"F G K K F D {.1X&X#X,.O , ' r - =.=.$.=.#.;.0 ;.<.6.@.@.;.;.<.t #.=.7 7 ; % a.:X.X&X'.( G K J G S S ",
"F S S G F D {.1X@X$Xa.# @ 7 @.9 ;.;.;.;.@.;.0 @.e =.9 0 =.=.<.<.#.=.0 0 @ % a.-X XXX~.( F F S a G G ",
"F F G K a m }.>X*X$Xa.# @ 7 =.7 =.;.=.;.@.;.5 @.;.:.r @.;.@.$.$.#.=.7 e @ % d.-X.XXX~.W G K K F S F ",
"I I ) ( I m }.2X*X#Xp.# - 7 @.@ ;.@.%.;.=.;.9 =.*.@.5 r w.$.#.@.%.$.1 7 @ $ h.*XXX&X'.W K Q K L ( W ",
"F S K K S D ~.,X*X*Xh.# - 4 #.- $.$.&.%.#.$.7 @.w.>.+.+.$.;.=.$.=.e 5 7 + $ #X*X:X,Xt./ s F G G G G ",
"a S L K F D t.,X@X#Xh.# - 5 $.5 $.$.=.@.=.@.5 *.:.:.@.9 @.=.=.=.$.@.5 7 O $  X$X:X,Xt.) L K W W W I ",
"W W ( ( J I u.,X$X@X[.# + 5 $.5 =.*.=.#.;.%.9 7.8.8.=.@.@.;.=.=.=.@.9 6 O $ #XXX=X-Xt.( F L K G G G ",
"P S S K s D ..&X&X+X#X$ + 9 %.q @.@.$.#.w.%.5 7.7.8.$.+.%.$.@.@.#.@.5 q + $ $X*X:X*X) / F G G S F F ",
"F F G G F u ..+X@X[.#X$ - %.%.0 &.$.$.&.w.%.5 7.7.7.$.%.$.$.$.$.@.@.4 4 + = :XXX,X:X..( J K K L G G ",
"W I ^ ^ Y U t.&X&X{.%X# @ e 9 q #.%.#.%.;.@.q 4.4.e.+.+.@.=.$.$.r %.5 - O = %XXX>X*X) I J W K K G G ",
"G S ^ W s s ..oX&X[.=X> : t w w t t ` _ ,.y.O.c.}.u.r.{ { ] r w @.$.7 - O n :X.X>XXX/ G S L L G G F ",
"H L ^ ( F u ) @X@X{.2XM w j.j.5.j.j.c.c.;X4X4X7X7X7X6X4X;XZ.y.3.=.<.e 4 + C :XXX,X&X^ G s L S S H G ",
"^ L ^ ^ G H ^ XX3X0X0X0X0XyXeXeXwXwXrXtXaXdXsXsXsXsXsXdXaXrXwX8XwXeXtXeXeX0X5X5X2X`./ H S G K F L L ",
"yXyXyXiXiXiXiXhXiXfXiXiXpXhXgXgXgXgXjXjXkXkXkXkXzXzXzXkXjXlXjXjXgXgXhXjXhXhXhXhXxXgXiXfXfXfXfXfXfXiX"
};
