/* XPM */
static char *_14d195e540c4623ed7b6d38e434ff5bsR14KizF7GFWjTg5[] = {
/* columns rows colors chars-per-pixel */
"50 50 251 2 ",
"   c #1D020E",
".  c #1E0819",
"X  c #230413",
"o  c #220B15",
"O  c #230C1C",
"+  c #2B0C1B",
"@  c #290715",
"#  c #360C19",
"$  c #34131D",
"%  c #3B131A",
"&  c #2C0D17",
"*  c #1F0E24",
"=  c #240D24",
"-  c #2B0D23",
";  c #270C28",
":  c #330F21",
">  c #241124",
",  c #2B1225",
"<  c #26132B",
"1  c #2C152B",
"2  c #2D192B",
"3  c #351326",
"4  c #34152B",
"5  c #33192D",
"6  c #3B1629",
"7  c #381734",
"8  c #2C1931",
"9  c #3D213A",
"0  c #5D0A19",
"q  c #4A141B",
"w  c #4E1317",
"e  c #620D14",
"r  c #640B1C",
"t  c #6D0D1C",
"y  c #69061E",
"u  c #720E1C",
"i  c #780E18",
"p  c #6B121A",
"a  c #7B1315",
"s  c #74121C",
"d  c #7A141C",
"f  c #7D1A1C",
"g  c #74171B",
"h  c #431423",
"j  c #44152B",
"k  c #4A1829",
"l  c #521623",
"z  c #541C2C",
"x  c #5A1A29",
"c  c #4C1C34",
"v  c #461D36",
"b  c #521D32",
"n  c #5B1A36",
"m  c #560D29",
"M  c #660A22",
"N  c #6C0C24",
"B  c #6D0D29",
"V  c #690623",
"C  c #720E24",
"Z  c #720D2B",
"A  c #6D1124",
"S  c #6C122A",
"D  c #671B27",
"F  c #741423",
"G  c #7A1523",
"H  c #741B24",
"J  c #7C1A24",
"K  c #73132B",
"L  c #79162A",
"P  c #741A2A",
"I  c #7B1B2A",
"U  c #6B1B36",
"Y  c #741430",
"T  c #751B35",
"R  c #48243B",
"E  c #582438",
"W  c #5E2931",
"Q  c #69252B",
"!  c #7B282B",
"~  c #652836",
"^  c #792338",
"/  c #6B3233",
"(  c #783639",
")  c #59221D",
"_  c #3F2241",
"`  c #421F42",
"'  c #442543",
"]  c #4A2844",
"[  c #592743",
"{  c #55324B",
"}  c #563451",
"|  c #642C47",
" . c #792845",
".. c #653248",
"X. c #78364B",
"o. c #683753",
"O. c #7B3857",
"+. c #752E50",
"@. c #7D3866",
"#. c #79435B",
"$. c #6B4355",
"%. c #7E586D",
"&. c #831C1D",
"*. c #8B1B1B",
"=. c #80151D",
"-. c #831424",
";. c #821C23",
":. c #8B1E21",
">. c #821C2A",
",. c #851428",
"<. c #801F33",
"1. c #84293B",
"2. c #842A2E",
"3. c #832D47",
"4. c #84354B",
"5. c #853A4B",
"6. c #8A364B",
"7. c #843453",
"8. c #8B3A54",
"9. c #8B3D5C",
"0. c #863957",
"q. c #923C58",
"w. c #91384E",
"e. c #8A3D64",
"r. c #863C67",
"t. c #943C62",
"y. c #9E397D",
"u. c #8C435C",
"i. c #874559",
"p. c #93435D",
"a. c #97465A",
"s. c #8F5B5F",
"d. c #B76659",
"f. c #844264",
"g. c #8B4264",
"h. c #8C446A",
"j. c #8C4868",
"k. c #924363",
"l. c #934965",
"z. c #924569",
"x. c #944B6C",
"c. c #984C6D",
"v. c #8D4A72",
"b. c #8A4476",
"n. c #934C73",
"m. c #994D72",
"M. c #934A77",
"N. c #925174",
"B. c #9A5274",
"V. c #995679",
"C. c #8F546F",
"Z. c #A14D77",
"A. c #8C6B7F",
"S. c #98667C",
"D. c #B7686A",
"F. c #AB6F73",
"G. c #AE5D5A",
"H. c #EA7A51",
"J. c #E87F61",
"K. c #E89639",
"L. c #F49C3E",
"P. c #F4A72D",
"I. c #F7A939",
"U. c #EDA739",
"Y. c #F3E51D",
"T. c #FBDB3C",
"R. c #FCD532",
"E. c #FEE33A",
"W. c #FAE539",
"Q. c #FEEC2C",
"!. c #B0897C",
"~. c #DD9957",
"^. c #D58A5D",
"/. c #EA9946",
"(. c #F39A49",
"). c #E89558",
"_. c #F59253",
"`. c #EDA64B",
"'. c #FAA948",
"]. c #FAB647",
"[. c #F8A854",
"{. c #FBB955",
"}. c #EBA953",
"|. c #C6896B",
" X c #D89175",
".X c #CA8C77",
"XX c #EA8C60",
"oX c #D5A376",
"OX c #EAAB65",
"+X c #F8B775",
"@X c #F4AD70",
"#X c #DBA656",
"$X c #FDDC44",
"%X c #FDDC4C",
"&X c #F7DA45",
"*X c #FBC956",
"=X c #FFDB53",
"-X c #F9D759",
";X c #F5C94F",
":X c #FCE244",
">X c #FEE34B",
",X c #F5E146",
"<X c #FEE252",
"1X c #FFE859",
"2X c #FFF240",
"3X c #F8C865",
"4X c #FBC879",
"5X c #F8D579",
"6X c #F4D066",
"7X c #FDE47A",
"8X c #FFE66A",
"9X c #986E82",
"0X c #99788A",
"qX c #997C91",
"wX c #8F7487",
"eX c #A27B8D",
"rX c #A77F93",
"tX c #B4799B",
"yX c #B5718A",
"uX c #AC72A5",
"iX c #C77F8B",
"pX c #9D8597",
"aX c #A7879A",
"sX c #BC8989",
"dX c #AA92A3",
"fX c #B896A8",
"gX c #B18AA2",
"hX c #D08D8D",
"jX c #E69B88",
"kX c #DAA488",
"lX c #D8A795",
"zX c #F6BA89",
"xX c #E5A795",
"cX c #ECB28A",
"vX c #C299AA",
"bX c #D89FA5",
"nX c #D6A2AA",
"mX c #EAB2B0",
"MX c #F9C888",
"NX c #FBD889",
"BX c #FAC796",
"VX c #F2CF92",
"CX c #FEE589",
"ZX c #FFE391",
"AX c #FFDBA4",
"SX c #FFC6A8",
"DX c #FEE2A3",
"FX c #DDB7CC",
"GX c #D6CDCB",
"HX c #F7F8F4",
"JX c #E1DDDA",
/* pixels */
"u s F F s u A F d s d s s a f d a i d =.a d g g d s f d s g s d g a a i g f ;.;.-.=.-.;.;.f =.-.I J ",
"F F J J F I J H I J J J J J J J >.;.>.J ! f g H H g H H H H H ! &.H f J J J ! >.>.>.>.>.,.I G >.>.G ",
"F u u s s s s i F s s u s s s g g g s p p e e e e e e e e e e p g g p g s s s s u t u s F F C N C u ",
"J L I J ;.f J &.>.;.J f f ;.;.2.&.:.&.&.&.&.f g J ! g g g g g g ;.f &.&.;.;.J H f J J I I L J L ,.I ",
"t s F s s s s f f a i i a a f &.*.*.*.*.*.*.*.*.:.&.&.&.g a a a a a a a =.a d a f d g d d i u u G F ",
"J J I J F F s F G d f d f f &.&.:.*.:.:.:.:.:.*.:.:.*.&.f &.&.&.f f a f f &.f f g s F g s s f J I P ",
"u u A F K P P D P P P H H P H ! J J I P ! J H H H H f H g H ! H H g H H P P P P S S P P A e e e e e ",
"i u u J 3.6.w.4.5.8.4.5.4.4.4.4.X.5.5.5.5.5.5.4.5.5.5.5.i.X.5.5.5.5.5.6.5.6.4.4.8.8.9.4.^ x 0 0 0 0 ",
"I J G <.0.M.M.M.x.j.i.v.b.i.i.h.@.f.l.l.O.C.o.i.i.f.r.f.g.f.e.9.0.f.r.h.g.u.f.f.r.h.h.g.3.s F H J I ",
"K F G <.7.z.M.M.@.f.O.@.r.4.0.e.b.r.O.e.l.F...b [ [ | o.o.+.O.#.O.@.@.@.O.X.O.0.@.v.v.g.1.s J F F J ",
"C u i <.7.v.M.n.b.yXd.F.D.d.d.D.D.D.G.D.D.F.E 6 4 4 5 4 4 7 R ' | | o.o.o.+.#.n.O.N.v.u.1.F J F H I ",
"F G d L 4.z.M.n.N.xX#X~.OX/._.XXK.L.(.}.^.!.E 6 5 5 1 1 , , 1 1 - - - - # h | x.O.V.M.p.^ J J F t u ",
"F G G I 3.h.M.n.i.zX}.U.].P.P.L.P.P.I.[.~.!.~ 7 5 4 3 4 5 5 5 8 2 , - O X q X.V.0.V.M.t.P J G F I ! ",
"F G d L  .h.M.x.v.cX{.U.'.U.I.'.(.(.(.[.~.|./ j 6 # + + 4 5 4 = O , < . X 6 +.n.@.V.x.k.K d d s C J ",
"t s d F  .g.M.n.b.kX{.`.[.'.U.'.[.[.'.{.~.|.~ c h % $ $ 3 5 , O X , 2 O o k +.x.9.V.h.u.A d s G F I ",
"t s d s  .g.B.n.#.kX3X].'.'.U.I.P.I.P.].}. X~ c % % # & $ , + o X , 2 .   k X.t.r.V.e.9.F s i F u F ",
"J F H P T l.m.M.i.lX{.I.{.'.[.I.I.I.I.].OX XW h q q : # % $ o   o o o O o j 5.9.9.B.f.9.A I s J I I ",
"s s s F P 9.z.b.0.hX*XI.{.L._.K.(./.(.(.XX.X/ x q # % # # $ & & o o o O O k O.8.9.B.g.9.t >.u L p s ",
"G u G F K q.e.M.g.hX3X].[.K.H.).XXXX)._.^.J.Q l # q k 6 $ $ & o o O O & o k 0.8.9.B.g.7.N J u F F F ",
",.,.,.I I p.z.x.s.sX3X'.].K.H.+X@XzX+X@X@XoX( Q w l E v 6 $ + > 2 2 > O o E i.5.g.B.g.4.A G s F F J ",
"-.-.-.G K q.e.z.g.!.6X].;XL.J.zX@X@X+X+XoXkX/ x q n | ] v k 9 9 _ 9 2 O @ z 0.6.j.m.9.3.u d s F F F ",
"-.-.-.G F w.9.z.p.!.5X;X*XI.XXAX4X4X4XMXcXxX( W w n | [ R R R R ] ' 8 o X b 0.6.z.c.0.1.u i s N L K ",
",.-.,.>.F 8.g.j.p.!.7X*X=X;X).DXMXMXMXMXcXkX( x l ~ | [ v v R 9 ' ' 4 o X W u.6.x.x.9.T s i d A F L ",
",.,.,.I H q.u.j.t.F.7X;X$XI.~.DXzXBXMXBXzXxX1.Q l ~ +.[ v R ] ' ` _ 2 o X E u.4.B.n.u.^ d =.G L K I ",
"u C C C L 3.z.z.q.eXNX$X&X6XH.AX5XVXMXMXMXxX .~ l U ..[ b E ] ' v ' < . X D u.4.n.m.9.L C C i C A N ",
"u C F J L 3.k.h.q.9X5XT.>X-X_.VXZXAXAXNXzXjX( Q x W ..[ c c ] ' ] ' 8 = @ W 9.7.n.m.8.T C G C C F F ",
"F C L ,.>.3.k.z.p.S.NXT.>X-X[.4X3XMXMX4X@XjX1.! D ~ | E k E [ R ] ' 8 O @ Q 9.4.v.m.8.P C G G Z N P ",
"N C G L I 3.t.z.p.V.CXT.>X%X{.;X*X{.3X*X[. X^ P ) D ..E E R E ' ' 9 < . # ~ p.0.v.c.7.K C G C G K 1.",
"N N F H K 3.q.z.p.B.CX&X:X&X*X-X$X%X%X-X3XxX4.^ D ~ | | z b R ] R ' 1 . & ~ k.0.v.x.4.K C C C Z C 6.",
"r r N A K ^ 9.z.k.m.ZX&X%X,X-X%XT.$X$X1XCXmXh.7.Q ~ | ~ k j E { ] ' 2 . # ^ k.0.x.l.4.S u C C Z V 6.",
"M 0 r r M ^ 9.c.i.B.NX&X%X,X=X:X:X>X:X>X5XmX0. .Q ~ | [ b c R ' R 9 > . # ~ l.0.C.k. .K C C C Z V w.",
"m 0 0 r r ^ u.c.i.B.VX<X<X:X%X:X=X=X:X>X5XmXi.( D D [ | | n [ ` 6 1 = . # X.c.9.C.l. .A u y C C L a.",
"N S K K I T k.M.a.v.VX&X,X<X&X&X%X:X>X<X*XhX( T D D E | ..} { R , 1 >   % X.l.e.m.k.^ K L L Y Y B B.",
"N N K K P Y k.N.a.v.VXT.W.<X$X:X$X:X:X>X*XhX! T x E n b b v h 3 4 8 > . % X.l.9.m.9. .C C Z B N Y F.",
"F B Y K L K j.N.a.n.VXT.E.<X$X:X$X:X:X>X*XiX1.U l x E b j 3 : , 5 8 > o % X.l.r.z.9.T S C C Z B S yX",
"N N B Z L K g.V.u.n.cX&XE.>X$XE.$X:X:X<X*XhX! U l x n b j 6 3 4 , < > X h X.c.e.e.8.T Z V C B K N yX",
"N M B N C B 9.N.l.N.kX,XE.>X:XE.T.E.E.>X*XhXQ U x x z j j 3 : + ; 1 * . h X.c.e.e.0.T V t V V V B tX",
"Z M B K F S u.V.l.N.kX,XE.>XT.E.T.W.E.>X*XiXQ D x l k j 6 3 , O 1 < = . h O.z.r.z.0.T N C C N B V vX",
"K B K K L S u.V.z.M.oX>XE.>XT.E.E.T.W.>X;XiXD n q l k j 6 6 ; + - < * X h #.c.e.z.7.U V L K Z Y B nX",
"C M S K C V 0.M.z.M.oX:XE.>XE.E.E.R.W.<X;XiXQ n l l k j 6 3 - O = ; * = k i.B.z.z.7.S V C C V M Y mX",
"Z V Z Y A S 4.B.f.s.!.W.,XW.Q.W.%XW.R.:X-XvXb z h j j 6 4 4 - O ; ; =   b l.g.m.x.T K N V B B N Z GX",
"Z Z Z Y N S 4.B.y.Z.hX>X:XW.Y.Q.2XQ.Q.W.6XtXn n q j j 6 4 4 1 = < < >   E g.g.m.B. .T L Z Y Y Z Y GX",
"C V Z B r S  .B.t.a.!.%X>XE.Q.W.Y.Y.Y.W.-XsX) l % j 6 4 4 ; = * ; * >   c g.g.m.j.U K C M B B V Z GX",
"V Z Z B r M  .z.8.i.!.1X8X8X1X8XCX7X7X7X4XgXl h 6 6 6 7 4 4 ; . ; * O   E l.t.m.x.U K Z B S Z C Y JX",
"F B Y Z N S  .g.f.h.rX5XMX+X+XzX+X+X+X+XOXeXh R # 6 6 3 5 1 < = 8 * * X E c.h.m.c.T Z G Z Y B Z Y JX",
"K B Y Y A M  .e.e.e.yX[.)._.(.[.K./.}.}.#XF.% 5 & + - - = < = . = . .   E C.z.M.t.Z V C V B N V Y HX",
"Y B B Z M M T t.q.a.iX[./.(.(.@XBXSXSXSXcXuX6 8 6 6 6 4 5 7 5 2 2 > = @ E j.r.M.e.Y V Z B B B F Y HX",
"^ Z V Y B 0 ^ c.g.M.tXoXD.hXjXmXlXnXnXbXkXuX..#.$.o.o.} } } { R ] ] R 6 ..f.r.b.e.B V C B B M N Y HX",
"9XS.S.9X9X9XeXyXdXfXfXfXfXfXvXvXvXfXfXvXfXfXvXfXfXgXdXdXdXaXpXaXaXdXdXdXaXpXA.%.C.f.O.+.+.+. .+.o.FX",
"9XA.A.9X9XA.9XqXwXwX0XqXqXaXeXpXsXpXaXrXeX0X0X9X0X0XwXpXpXpXpXA.pXpXpXpXdXpXpXpXdXdXaXaXuXeXqX0XC.qX"
};
