/* XPM */
static char *_ef8f33534fb408588b9a3dd30a24f8f4IvoeAFoOKCy0vxp[] = {
/* columns rows colors chars-per-pixel */
"50 50 199 2 ",
"   c #201B17",
".  c #32261A",
"X  c #33291D",
"o  c #3B2D1D",
"O  c #352C23",
"+  c #392E24",
"@  c #373121",
"#  c #3D3325",
"$  c #3F3826",
"%  c #3B332B",
"&  c #3D3532",
"*  c #3D3C35",
"=  c #402F1B",
"-  c #443525",
";  c #4C3724",
":  c #473825",
">  c #493A25",
",  c #42362B",
"<  c #493729",
"1  c #453A2D",
"2  c #4C3C2C",
"3  c #513E2D",
"4  c #413731",
"5  c #443B34",
"6  c #4A3E33",
"7  c #453E39",
"8  c #4B3F3B",
"9  c #523F31",
"0  c #3A4034",
"q  c #4D412D",
"w  c #574225",
"e  c #53432E",
"r  c #5A492F",
"t  c #454337",
"y  c #4C4234",
"u  c #45413B",
"i  c #4C443B",
"p  c #4D483E",
"a  c #534434",
"s  c #594533",
"d  c #534936",
"f  c #5B4A35",
"g  c #53463B",
"h  c #59473A",
"j  c #544A3D",
"k  c #5B4D3D",
"l  c #5E5136",
"z  c #57503E",
"x  c #5D513E",
"c  c #604F31",
"v  c #614E3E",
"b  c #655836",
"n  c #63533D",
"m  c #69523D",
"M  c #67593E",
"N  c #6C593E",
"B  c #454340",
"V  c #4B4543",
"C  c #474A43",
"Z  c #4D4A44",
"A  c #4C474B",
"S  c #4D4B4A",
"D  c #524642",
"F  c #544B43",
"G  c #594E43",
"H  c #50474A",
"J  c #534D4A",
"K  c #5A4E4A",
"L  c #545045",
"P  c #5C5144",
"I  c #5F5A46",
"U  c #55524C",
"Y  c #5C544B",
"T  c #5E594C",
"R  c #564C54",
"E  c #555452",
"W  c #5C5452",
"Q  c #575853",
"!  c #5D5A53",
"~  c #545358",
"^  c #5B5759",
"/  c #5C5B5A",
"(  c #614F42",
")  c #625444",
"_  c #6A5744",
"`  c #655945",
"'  c #6B5B44",
"]  c #62554B",
"[  c #69574B",
"{  c #64594C",
"}  c #6B5C4B",
"|  c #745D46",
" . c #725D4A",
".. c #625652",
"X. c #645B53",
"o. c #6A5D54",
"O. c #60575A",
"+. c #645C5A",
"@. c #695E5A",
"#. c #715F53",
"$. c #725F58",
"%. c #66604E",
"&. c #6D614D",
"*. c #736244",
"=. c #7C6244",
"-. c #74634C",
";. c #7A674E",
":. c #7D6A4C",
">. c #656254",
",. c #6C6254",
"<. c #65615C",
"1. c #6C635B",
"2. c #6E6D5B",
"3. c #736454",
"4. c #7A6653",
"5. c #756954",
"6. c #7B6B53",
"7. c #71655B",
"8. c #796759",
"9. c #736A5D",
"0. c #7C6D5C",
"q. c #7C725D",
"w. c #645F63",
"e. c #656362",
"r. c #6D6563",
"t. c #676862",
"y. c #6E6A64",
"u. c #686669",
"i. c #676A6F",
"p. c #6E696B",
"a. c #716662",
"s. c #746B63",
"d. c #7A6E63",
"f. c #706768",
"g. c #736C69",
"h. c #796F6B",
"j. c #757165",
"k. c #7C7265",
"l. c #76716D",
"z. c #75726B",
"x. c #7B736A",
"c. c #7B776C",
"v. c #7C746B",
"b. c #7E7969",
"n. c #767270",
"m. c #7C7771",
"M. c #7C7571",
"N. c #7E7A72",
"B. c #7F7C77",
"V. c #7D7A73",
"C. c #846D4E",
"Z. c #816C55",
"A. c #846E5C",
"S. c #877453",
"D. c #837155",
"F. c #8E7456",
"G. c #83725C",
"H. c #8A745D",
"J. c #86785E",
"K. c #8B7A5E",
"L. c #907959",
"P. c #827265",
"I. c #827465",
"U. c #887765",
"Y. c #837864",
"T. c #847A65",
"R. c #8B7B64",
"E. c #83766B",
"W. c #8E776F",
"Q. c #83796D",
"!. c #837A6D",
"~. c #8A7C6D",
"^. c #937E63",
"/. c #817672",
"(. c #807B75",
"). c #847B72",
"_. c #897D73",
"`. c #847D7A",
"'. c #897E7A",
"]. c #907F77",
"[. c #88816F",
"{. c #91826F",
"}. c #9A8769",
"|. c #878076",
" X c #858176",
".X c #8F8174",
"XX c #8B8275",
"oX c #85827C",
"OX c #8D837A",
"+X c #8F887E",
"@X c #988A70",
"#X c #91877B",
"$X c #91867C",
"%X c #98877F",
"&X c #94897B",
"*X c #958C83",
"=X c #9F9282",
"-X c #97938A",
";X c #9F9589",
/* pixels */
"7.g G j X.%.q.Y.U.k.9.9.,.z f &.C.N > t U 7 O * 7 & 5 y P 3.` 9 ' o.} } 3.I.G.f J J E Y F F G K ] W ",
"] G 4 ] o.X.1.s.k.d.7.1.>.Y z P *.~.] O J K % * O 5 K G u 6 G [ k } 9.Q.XXXX8.2 F P Y ] Y ..W K F K ",
"9 ( O K ..@.s.s.s.<.X.+.! L j y K @.o.C 7 8 g 8 j 6 , a K ` P g o.9.l.).$X#XY.k 1 y g 5 # + % % O @ ",
";.R.h 8 K ....] ` P Y Y F L P d W P 1.@., + 6 : ; _ } [ y D Y @.s.l.c.V.N.).Q.[ a a a i i Z U ! d.9.",
"S.:.x - g a 2 a e 2 e y 2 h _ ) X y j ` } ' N ;.-.-.2 k ] ..Y W o.f.l.B.(.v.k.} -.x j ] a.g.j.b.Q.Q.",
"b q a 1 ] G l *.M _ ` ) k ) #.A.L q e } 6.-.%.%.~.5.o G P C B +.O.a.h.`.(.x.b.o.I P P X.W K Y 1.P.U.",
"z I P +.a.3.6.:.k P F p i i D ] } < s  .%.{ 9.j.[.k.# K F 7 B w.@.w.<.g.s.7.5.` y U >.O.K J X.0. .| ",
"% ! A ^ E ,.G.l i Z Z S ~ A J <.v A.4.s f P >.z.j.!.t L A K J ^ o.O.K X.X.] ) q >.>.! V V ..] G | C.",
"I a D W O.@.} ` F F j h a g k P ` o., X.p U y.<.f.h.i < k d X i y j G k ) 5.' : i.Q F { X.F P ` -.5.",
"T.{ g D o.7.) h i j F K Y X.3.x.~.E.j j K U <.<.f.9.] k P P F Y F P ] [ ,.k.,.2 Q z.%.d G 8 i %.0.0.",
"/.a.j a j g , 7 U ! X.Y U P { 1.P.$Xd.% P U <.X.+...o.( g G ] K W U Y 1.k.XXY.) , ` f a k K >.b.k.b.",
"h._.3.` n 1 & H Z Z J Z i D U X.[ E.#XD P F F Y O.@.9.] g G +.E U Z F U y.).(.1.s f N ;.( k s.j.Q.).",
"'.'.3.} 3.j u A B u u u B F K U { ,.XX9.F p i T K ,.3.) h P O.^ W H F Y <.(.OXQ.m | L.^.v 6 1.b._.OX",
"'._.` ` ' p C B Z C u 7 i V F F X.1.k.{ y ,.>.] 6 P P x y ] W ^ E J J W a.OX*X'.m F.F.C._ j ,.!.XXOX",
").Q.` [ ] y S C 5 5 * 6 i F Y { { 9.>.i i 9.2.{ ) P x 5.y ,.<.W B V J Y 7.OX_.@.;.S.:.-.) a Y >.Q.~.",
"T.j.G [ P 8 L 0 7 u u u u F Y { ,.{ j L ,.j y ,.Y.' ' R.q 1.r.C K W X.<.s.OXd.g _ r N K.k # I %.E.E.",
"X.9.) f _ 9 ] B V V J j j ] ! F a _ :.e g K $.Q.B.)..X' ' r q 1 Y j Y o.-.T Z / z.y.).;X{ # { 1.9.9.",
"F y f ;.G.3 D Y E 8 8 ] { F p L 3.5.6.) h X.a.g.f.v.!._ ;.' &.{ } ) a c l &.P a.y.y.v.&Xk j p T i g ",
"F P ;.6.Z.n j i 6 g j j y p U <.Q.k.-.} g +.+.<.<.Q.P n a ` 6 g s }  .G.S.K.x { z.s.Q.k.j ] q j ] ] ",
"{ 0.T.*._ } { D k 7.8.k k <.V.oX`.c.5.) D E S / } { P q Q.k.Q.s.} $.] ` n ' z h.g.g.v.] ` P z P ) P ",
"o.] ,.3.] ] ..@.,.k.6.[ 3.c.m.V.n. Xq.j W A C 1.&.&.G g s.X.1.<.1.2.h.g.XX%.D a.h.g.1.) } x 3.3.,.,.",
"1.! o.x.{ F K W P 9.} y G o.e.+.r.(.b.p X.H S y.f } < s.W y.y.oXV.r.u./ c.F i w.x.c.] ` ` k o.d.0.d.",
"k.j.1.Y.P D Y i i 9.X., 6 ..@.<.<.y.9.F V K W <.| f 5 +.<.~ n.M.XX`.l.! j.P j h.j.7.` ) k ] 9.h.Y.Y.",
"!.q.{ q.z q ] L U { D D ..] J O.e.! %.` 1 +.r.Y }.' , e.e.^ p.+.k.OX/.>.{ a a W.%.d %.: ) $.W.'.~.~.",
"Q.Y.&.P ) P j k e.K 4 O.8 H F G X.X.{ ' 2 2 d -.6.q.$ <.Q U C y.(.f.g.<.X.p G 0.f ) y p Y { v.W.%X'.",
"Q.d.P y k } { j g , & E u F F Y U +.1.P { 0.k ` 5.G.,.1 j.J B +.X.a.v.<.<.P d 2 ` a g g i K s._.~.E.",
"!.1.F j L 1.7.{ &.y F Z * i F >./ +.<.5 2.XXL <.[..Xq.a ) s.E e.1.@.<.] { ) -.A.P % F F D X.@.E..X[.",
"1.j i L Z y F X.` : ] j i C Z ! 1.T ] 5 X.3.F a.t.1.} Z.; E.+.~ <.X.o.{ o.k  .| u 6 F F E ,.[ $.k.k.",
"] y p U t % y Y [ < o.H J J J K ,.k 2 f  .4.P y / Y 3.G.s h h.+.1.<.K 5 G 5.R.m # X.K 7 K Y ] ( j.x.",
") P L Z 7 i P ` k 5 o.X.+.W D 7 : _ ;.Z.s s k ) / l.Q.!.[ = Y 1.9 8 y K x.&X=Xn . o.Y K X.Y ] ) G P ",
"x P i 5 i K ) } } s 2 # % d -.3.' -._ 6.} d.6 p u y.V.+X{ y - 6 ] G D { s.v.&XX.2 q F ,.1.Y G G c ) ",
"n n j F T ] } G.M _ -.6.-._ N w T 3.k.&Xd.1.  +.>.U y.t.u ,.-.n a 9.OXoXB.oX-XU J.o 1 ,.X.U 6 6 =.C.",
"Y G G K ] Y P G Q.8.H.s g U 8 ] 2.z.g.).OX` 2 ' ) k k ) [ ] ( k H '././.9.OX9.j ;.5., 1 6 6 _ H.U.-.",
"G j j F P Y Y Y 9.} Z.3 Y +.F +.I z.m.N.k.n 2 < ) ` ) h [ P.d.] 5 w.f.@.j p j P &.[.P g ] d.U.A.d a ",
"j D Y ] { X.X.{ 1.) ;.< { / W X.T s.g.r.,.&.q.8.` K G ) 7.d.d.7.6 j i g p t T y.k.OXY F >.9.3.n 6 F ",
"g ] ,.s.k.s.1.{ ,.P -.- X.U K U X.X.e.g.o.n 0.' G k ] o.7.o.$.9.$.) , g T L U >.1.h.p V U X.] ` + p ",
"P o.k.Q.Q.x.9.@.{ k } - ] A U ..! T +.a.{ d ;.2 i ] X.P Y X.<.{ } } y P Z F p L Y h.F p L T >.,.i U ",
"Y >.s.g.k.x.9.@.T P _ : Y C U W L U / O.` n R.> F g i 8 g Y { Y a ] 1 P u Y F U G 1.p L L p F ,.K F ",
"P ] 1.3.s.0.7.X.X.] ) 2 U S C K t F +.+.} x G.= V 7 5 p D i j T o.>.u g g K D F s G @ L Y p U x.Y y ",
"p K X.,.s.h.1.] Y P s a Y S A F U H J W { f @X-.& V J J p p F L r.r.K 8 u 6 F P } G.d j P Y o.a.,.a ",
"% X.Y W <.o.o.P 1.K p t p.K R o.! U U z z 5.q.M o.5 F G 7 u H V } ) v x k P s.*X-.6.v < 1 6 6 Y ;.m ",
"% F F P Y L { ] s ) x @ D V F L U 1.T L ` d d 6.].X.O X.Y 1 D >.k P P j G <.x.x.-.6.#.] ] K ] 9.Z.' ",
"G j h ) ) k k a } J.5.q 6 i d q 6 - y k y { _._.W.].P O F y >.i a u i L Y X.>.2.A. .k K X.,.x.+Xq.} ",
"( h k k 2 2 -.Y.;.4.M x P o.} | 8.3.k y { a.s.g.P./.o.a o K q a i u Z U Z u F >.-.a g [ s.a.a.a.k.5.",
"#.s s } 4.5._ y ] k a k ..@.$.A.4.n a Y d.7.r./.E.[ d.) k q G a i J U B 0 Z L Y ` d F $.a.o.Y Y ,.7.",
"A.Z.A._ 2 2 y ` ..] { F J K ..[ k y [ 3.K K <.,.o.h.` ,.a } 0.> F F C B u L T x j K ..X.K D G o.T a.",
"*.q.0.k y G Y 1.o.o.2.>.O.K $. .# { >.P { X.T 1.{ ] G ) #.) 8.e K B B S U L k n + K @.X.W D V G o.c.",
":.D.;.e g ,.+.r.c.,.k.,.7.D [ _ D 5 u F F P P j D D G G } 3.v ) 5 F ~ U Z Y x f g 7.O.8 V D g F K 1.",
"o.3.} y Y @.k.0.x.P.A.0.1.U x | =.3 4 Z V g g i 1 6 5 g G o.$.d # 6 F d e l 0., W { P F V D D F U X.",
"} } ` 2 P +.d.q.x.b.d.0.1.Y P  .F.v 8 V p 5 5 % 5 6 5 g F o.$.g k ) [ } | ;.{.g Y Y U F g p D F P Y "
};
